/* XPM */
static char *_a785c48ae8e461cd886e28049ce9642XuEIfwXCbAshOSVg[] = {
/* columns rows colors chars-per-pixel */
"30 50 227 2 ",
"   c None",
".  c #0A0E02",
"X  c #170D02",
"o  c #071404",
"O  c #051A07",
"+  c #181B08",
"@  c #2B0601",
"#  c #2D0B04",
"$  c #240A04",
"%  c #3A0602",
"&  c #330B03",
"*  c #3C0B03",
"=  c #291806",
"-  c #371706",
";  c #11230F",
":  c #222718",
">  c #420401",
",  c #4B0401",
"<  c #450B04",
"1  c #480C06",
"2  c #540C04",
"3  c #5B0C03",
"4  c #570807",
"5  c #491304",
"6  c #561707",
"7  c #630B04",
"8  c #680805",
"9  c #7B0502",
"0  c #760B03",
"q  c #7C0B02",
"w  c #750F09",
"e  c #6A1506",
"r  c #761306",
"t  c #5E2117",
"y  c #722118",
"u  c #69281C",
"i  c #4F3A31",
"p  c #6D342E",
"a  c #743222",
"s  c #820602",
"d  c #8D0702",
"f  c #820B02",
"g  c #8B0D08",
"h  c #920603",
"j  c #9B0403",
"k  c #940902",
"l  c #9D0C0C",
"z  c #9B0B03",
"x  c #8B1204",
"c  c #89180A",
"v  c #991706",
"b  c #8C1513",
"n  c #A30501",
"m  c #A50A02",
"M  c #AA0B02",
"N  c #A80B0C",
"B  c #BC0601",
"V  c #B30B02",
"C  c #BA0A03",
"Z  c #B20C0E",
"A  c #A71908",
"S  c #BD1303",
"D  c #B91407",
"F  c #BD0E16",
"G  c #9A2E1E",
"H  c #B3240F",
"J  c #8F3A34",
"K  c #B83227",
"L  c #B02B21",
"P  c #C50A03",
"I  c #CB0B03",
"U  c #C90604",
"Y  c #DD0602",
"T  c #D50A03",
"R  c #DA0A03",
"E  c #D60701",
"W  c #C81706",
"Q  c #D41205",
"!  c #D61807",
"~  c #D6101A",
"^  c #EB0904",
"/  c #F20C04",
"(  c #E31405",
")  c #E71709",
"_  c #F31305",
"`  c #FB1305",
"'  c #FD130B",
"]  c #F71909",
"[  c #FD0C1C",
"{  c #F90D18",
"}  c #E41818",
"|  c #FE1413",
" . c #FD1A16",
".. c #FC141B",
"X. c #FD1B1B",
"o. c #F2121B",
"O. c #FC2214",
"+. c #FC221B",
"@. c #FD281D",
"#. c #E92412",
"$. c #D41A30",
"%. c #FD0C25",
"&. c #FF0C2B",
"*. c #FE1523",
"=. c #FD1C22",
"-. c #FC132A",
";. c #FD1C2B",
":. c #F7112A",
">. c #FE0F33",
",. c #FD1231",
"<. c #FC163C",
"1. c #FD193B",
"2. c #F91A35",
"3. c #CB3229",
"4. c #EA2627",
"5. c #FD2223",
"6. c #F92C24",
"7. c #FE232D",
"8. c #FD2B2D",
"9. c #F63528",
"0. c #FD2434",
"q. c #FD2D3A",
"w. c #FE2B36",
"e. c #FD3A3B",
"r. c #FC3437",
"t. c #EA3434",
"y. c #F54630",
"u. c #FD1C43",
"i. c #FD1D4B",
"p. c #FD2241",
"a. c #FE234D",
"s. c #FD2C49",
"d. c #FD3B43",
"f. c #FD324C",
"g. c #FE3345",
"h. c #FE2552",
"j. c #FC2C54",
"k. c #FE2A5B",
"l. c #FE255A",
"z. c #FC3256",
"x. c #FD3C54",
"c. c #FB3659",
"v. c #FD2D64",
"b. c #FD2C68",
"n. c #FD3365",
"m. c #FC3C62",
"M. c #FE346B",
"N. c #FD3C6C",
"B. c #FE3D73",
"V. c #FF3C7B",
"C. c #FC3775",
"Z. c #A55751",
"A. c #B14479",
"S. c #C65856",
"D. c #FD4547",
"F. c #FA5246",
"G. c #FC455A",
"H. c #FC4A57",
"J. c #FA5354",
"K. c #EE4743",
"L. c #FA6551",
"P. c #FD436B",
"I. c #FB486C",
"U. c #FD5262",
"Y. c #FC5B64",
"T. c #FD4A75",
"R. c #FE437D",
"E. c #FD4B7B",
"W. c #FE5575",
"Q. c #FD5C72",
"!. c #FE597C",
"~. c #D46973",
"^. c #FD646C",
"/. c #FD6565",
"(. c #FC6C7C",
"). c #FD6777",
"_. c #FC757E",
"`. c #FE7B7D",
"'. c #F47475",
"]. c #FB8479",
"[. c #FE4583",
"{. c #FB4C83",
"}. c #FE458B",
"|. c #FD4B8D",
" X c #F04B83",
".X c #FE5D85",
"XX c #FE528C",
"oX c #FE598D",
"OX c #FC5383",
"+X c #FE4C96",
"@X c #FD4C98",
"#X c #FD5C94",
"$X c #FE529B",
"%X c #F7589A",
"&X c #E85592",
"*X c #D1609B",
"=X c #FD6382",
"-X c #FC6D8C",
";X c #FD6687",
":X c #FD7984",
">X c #FD7489",
",X c #FE7986",
"<X c #FC629C",
"1X c #FA6998",
"2X c #FE54A2",
"3X c #FE5CA5",
"4X c #FE5CAB",
"5X c #FE5FB1",
"6X c #EF58A1",
"7X c #FB62A7",
"8X c #FE72A4",
"9X c #FE64B4",
"0X c #FE65B9",
"qX c #FF6BBC",
"wX c #FD6BB2",
"eX c #FE6CC3",
"rX c #FD74CA",
"tX c #FD76C8",
"yX c #FE7BD4",
"uX c #FE7AD6",
"iX c #FE878A",
"pX c #FD938A",
"aX c #FE8D90",
"sX c #FE83DB",
"dX c #FF85D4",
"fX c #FE8DE3",
"gX c #FF92E3",
/* pixels */
"                                                            ",
"                                                            ",
"                          ].L.y.                            ",
"                        `.)./.O.9.                          ",
"                        ).=X=XO.O.@.                        ",
"                      ).-X8X;X+.+. .+.                      ",
"                    J.Q.1X8X.XX. .....+.y.                  ",
"                  J.U.!.1X8X.X5.X...*.=.8.F.                ",
"                J.G.I.Q..X1X.X;.7.0.0.q.q.d.J.              ",
"              e.d.G.P.T.E.#XOXw.s.z.c.c.x.G.J.(.            ",
"            r.8.g.f.z.m.E.oX Xf.P.T.E.T.E.!.Q.(.,X          ",
"          6.@.5.0.q.s.c.N.oXE.f.#X3X7XXXoX.X!.(.:X`.        ",
"        9.+.@.+.7.0.q.j.B.E.I.7X&XwXwX<X#X-X=X:X:XS.a       ",
"        '.r.X. .=.;.u.j.P.OXdXgXqX X<XwX<X-X>X:XJ 5 6       ",
"        pXiXJ.5.=.;.1.s.m.tXgXgXfXrX%X1X>X>X~.p - & 6       ",
"        ].pXiX/.0.;.0.j.9XsXgXsXfXfXsX1XS.Z.t # * * 6       ",
"        /.`.iXaX_.H.z.9XuXuXsXsXsXuXsXyXA.$ 1 1 4 1 6       ",
"        F./.`.aXaXiX%XyXfXfXsXsXsXuXuXrX*X# 1 4 4 2 7       ",
"        K y./.].iX>X7XuXuXsXrXrXuXrXeXeX6X- 1 1 2 2 e       ",
"        y.D.J.^.:X>X%XyXyXtXeXeXeX0X0X5X6X4 2 3 3 3 e       ",
"        r.e.D.J.).=X<XtXtXeX0X9XqX5X4X4X%X8 8 8 7 3 r       ",
"        8.8.e.H.U.Q.#XeXqX9X9X4X3X2X2X2X|.b 0 0 0 w c       ",
"        5.8.r.H.U.Q.XX5X3X2X2X@X@X$X@X$X Xg q f x x b       ",
"        =.7.8.d.G.H.E.4X$X+X+X+X|.{.}.}.C.g g h h z A       ",
"        5.=.7.w.x.G.R.2X@X|.[.V.C.V.C.C.C.l n n m M W       ",
"        X.X.=.7.s.x.R.%X|.R.C.M.M.M.b.b.n.l M V V V W       ",
"        | ..=.;.g.H.E.+X[.B.v.k.k.k.k.l.j.N V C B P Q       ",
"        ' ' ..=.0.r.T.|.R.B.k.i.a.h.a.a.u.N V B B P !       ",
"        ] ' | X.2.0.T.[.B.n.h.i.u.u.u.u.i.l B P I Q )       ",
"        ] ' | X.*.2.P.R.M.k.a.p.<.u.u.<.0.N U E T T (       ",
"        ` ` ' | ..;.N.R.v.a.u.1.,.>.&.,.<.N E E T R )       ",
"        ` ` ` ' [ -.m.B.v.a.u.-.&.%.&.,.:.l Y E ^ ^ _       ",
"        _ _ ] ` | ..M.C.l.i.>.%.%.%.%.%.} 8 n R ^ / _       ",
"        #._ ` ] R U t.b.k.u.,.%.[ [ [ o.j , % 0 I / _       ",
"        ) ] ) S C T I 4.a.1.&.&.%.[ { h % % % > , l )       ",
"        ] ( W W Q I B P ~ <.>.%.%.{ Z % @ @ % % * % w       ",
"        ! W ! ! P B V n z ~ 2.2.%.P 9 , , @ @ # @ 1 u       ",
"        4.#.W W D m h d 9 0 w $.~ j 9 4 < & @ & 5 y         ",
"          4.W A v x 9 0 8 4 > 4 h j s 8 2 % & - t           ",
"            3.v x r e 3 1 % @ @ s j h 0 8 7 3 y             ",
"              L c e 6 5 - - = X f n d q 0 w b               ",
"                G e 6 5 - = X X f M k k x b                 ",
"                  J t - = + . . q M M A A                   ",
"                    p - = + o o x S S W 3.                  ",
"                      i + O O o x W ! 3.                    ",
"                          : O o A #.9.                      ",
"                            ; ; H 9.                        ",
"                              : K                           ",
"                                                            ",
"                                                            "
};
