/* XPM */
static char *_a24cbe2e0cb4c55be095cdb7ca32af6dF20kRXDs0exvXj1[] = {
/* columns rows colors chars-per-pixel */
"50 48 91 1 ",
"  c #FFE3AE",
". c #FDE1AE",
"X c #EFD6AD",
"o c #DFC9AC",
"O c #EED5AD",
"+ c #F8DDAD",
"@ c #E5CEAC",
"# c #FCE0AE",
"$ c #FEE2AE",
"% c #E8D0AD",
"& c #E1CBAC",
"* c #F0D7AD",
"= c #F4DAAE",
"- c #E4CDAC",
"; c #E6CFAD",
": c #F9DEAE",
"> c #EAD2AD",
", c #FADFAE",
"< c #FBE0AE",
"1 c #FDE2AE",
"2 c #FCE1AE",
"3 c #F7DDAE",
"4 c #F2D9AD",
"5 c #E7D0AC",
"6 c #F6DCAD",
"7 c #F5DCAE",
"8 c #E3CDAC",
"9 c #EFD7AD",
"0 c #ECD4AD",
"q c #E4CEAC",
"w c #F3D9AD",
"e c #E6CFAC",
"r c #F5DBAD",
"t c #EBD3AD",
"y c #F1D8AD",
"u c #FBDFAE",
"i c #E3CCAC",
"p c #E7CFAD",
"a c #F6DBAD",
"s c #E7D0AD",
"d c #DDC7AC",
"f c #F8DDAE",
"g c #DBC6AC",
"h c #E5CEAD",
"j c #E5CFAC",
"k c #EDD4AD",
"l c #E0CAAC",
"z c #F4DBAE",
"x c #EED6AD",
"c c #E9D1AD",
"v c #F1D7AD",
"b c #FEE3AE",
"n c #F8DEAE",
"m c #F9DFAE",
"M c #F3DAAD",
"N c #FAE0AE",
"B c #F7DCAD",
"V c #F4DBAD",
"C c #D8C4AC",
"Z c #F4DAAD",
"A c #E2CBAC",
"S c #F2D8AD",
"D c #F0D6AD",
"F c #E2CCAC",
"G c #E6CEAD",
"H c #FBE1AE",
"J c #ECD5AD",
"K c #E0C9AC",
"L c #E1CAAC",
"P c #D7C4AC",
"I c #CEBCAB",
"U c #D2BFAB",
"Y c #D5C1AB",
"T c #DEC8AC",
"R c #E4CDAD",
"E c #F5DBAE",
"W c #ECD3AD",
"Q c #F9DEAD",
"! c #F7DDAD",
"~ c #EDD5AD",
"^ c #F7DCAE",
"/ c #DDC8AC",
"( c #EAD3AD",
") c #E8D1AD",
"_ c #F6DCAE",
"` c #DAC5AC",
"' c #F0D8AD",
"] c #EAD1AD",
"[ c #E5CDAC",
"{ c #E7D1AD",
"} c #F6DDAE",
/* pixels */
"     .XooooO    +@oooo#   $%ooo&*    =-ooo;:     >",
"                                                  ",
"                                                  ",
"                                                  ",
"                                                  ",
"                                                  ",
"                                                  ",
"   $,$     .<1          1,      2<                ",
"   <;3     456          78     290                ",
"   <q3   2w;e6          r&    2Xet                ",
"        #y8@wu               2Oipr                ",
"        ai>sd4               fgth-                ",
"     14@j;eetf            $k@@se;X                ",
"     .9lsz0x              $clj,>v                 ",
"     b<n,.<<               ,nm$u2                 ",
"                                                  ",
"                                                  ",
"                                                  ",
"              331     MN          #B,     2V2     ",
"              ej,     Cx          ZAX     rgr     ",
"              <<$   MCZ2          1,2    0&S1     ",
"                   Dj>FZ                kG%i:     ",
"                H49e8JKw             ,49qhcLf     ",
"                VPIsxUm              XYI0cT6      ",
"                                                  ",
"                                                  ",
"                                                  ",
"                                                  ",
"   $,1     2,.          .:     b#<                ",
"   ,A6   b.ORE          Zo    b,Wc                ",
"   #>Q   29etf          !s    <W;X                ",
"        <*-@4,               2kipr                ",
"     $:w~AcsoM             ^wx/(je                ",
"     .OTi~p)B2            $%TAyj>n                ",
"     $a0vQZr              $S0*2w_                 ",
"                                                  ",
"                                                  ",
"                                                  ",
"                                                  ",
"              w4.     WB          ,v3     ,~,     ",
"              WW<   2Vlw          ^cw    ,DAf     ",
"              ,,$   M`w#          .:#    kAv.     ",
"                   tFyg'                sq(/B     ",
"                Q]-;p[{}             _%-;ejs,     ",
"                +[TO4Lm$             ZiTyX%3b     ",
"                $2#1$#               $2#$1.b      ",
"                                                  ",
"                                                  "
};
