/* XPM */
static char *ec0eb9839d2242ef9cd402fc417e128frAqf5BIGSI2gFfmj[] = {
/* columns rows colors chars-per-pixel */
"50 61 172 2 ",
"   c None",
".  c #15192E",
"X  c #1A192E",
"o  c #171C31",
"O  c #1A1D31",
"+  c #251C2F",
"@  c #291C2F",
"#  c #331F2F",
"$  c #241B31",
"%  c #2C1C31",
"&  c #331E31",
"*  c #3B1E34",
"=  c #341C3E",
"-  c #3B1D3C",
";  c #1C2334",
":  c #1E2A38",
">  c #212B36",
",  c #21273C",
"<  c #262C3C",
"1  c #282D3F",
"2  c #282538",
"3  c #3B2231",
"4  c #362B35",
"5  c #27323A",
"6  c #2A373D",
"7  c #481F38",
"8  c #462232",
"9  c #4B2333",
"0  c #4A2739",
"q  c #552631",
"w  c #5F2339",
"e  c #572736",
"r  c #593036",
"t  c #642A34",
"y  c #6D2C33",
"u  c #642539",
"i  c #6D253B",
"p  c #7B2E34",
"a  c #74273C",
"s  c #78273D",
"d  c #7D2B39",
"f  c #7C3537",
"g  c #3F1C44",
"h  c #292940",
"j  c #2C3845",
"k  c #343B48",
"l  c #2E3750",
"z  c #383D61",
"x  c #531F4A",
"c  c #411C45",
"v  c #592047",
"b  c #41344B",
"n  c #413650",
"m  c #553B5A",
"M  c #6E2549",
"N  c #662349",
"B  c #7E2C43",
"V  c #7B2741",
"C  c #7D394C",
"Z  c #623755",
"A  c #753B5B",
"S  c #314142",
"D  c #36464C",
"F  c #3C4469",
"G  c #444555",
"H  c #724B5C",
"J  c #404469",
"K  c #564369",
"L  c #525761",
"P  c #5A5C6D",
"I  c #414972",
"U  c #5B6567",
"Y  c #5F6172",
"T  c #61676D",
"R  c #62696E",
"E  c #737B7B",
"W  c #636575",
"Q  c #822A3D",
"!  c #852E38",
"~  c #9A2F3E",
"^  c #8E3235",
"/  c #8B3039",
"(  c #953336",
")  c #9C3536",
"_  c #99393C",
"`  c #A03635",
"'  c #A6353B",
"]  c #B13A36",
"[  c #BC3C37",
"{  c #BD3A3C",
"}  c #B8383F",
"|  c #C43E37",
" . c #C2393F",
".. c #CB3B3E",
"X. c #D43E3C",
"o. c #B4523A",
"O. c #CB423B",
"+. c #D34139",
"@. c #DC423A",
"#. c #DD4A3E",
"$. c #D74B3E",
"%. c #DC5A3D",
"&. c #E64539",
"*. c #E34C3B",
"=. c #E6573B",
"-. c #CC743F",
";. c #E96B3C",
":. c #E37F3F",
">. c #842843",
",. c #962B44",
"<. c #8F3047",
"1. c #853147",
"2. c #9B324B",
"3. c #9C3644",
"4. c #A52E44",
"5. c #AD2F45",
"6. c #A53142",
"7. c #AD3244",
"8. c #A2324A",
"9. c #B33244",
"0. c #BA3443",
"q. c #B33A45",
"w. c #B13848",
"e. c #C13741",
"r. c #C43941",
"t. c #BB4543",
"y. c #B15043",
"u. c #BF5953",
"i. c #B75966",
"p. c #CC4B40",
"a. c #D34641",
"s. c #D05349",
"d. c #C05D54",
"f. c #C25750",
"g. c #D15050",
"h. c #C96743",
"j. c #D76440",
"k. c #CF7343",
"l. c #E96244",
"z. c #EB6748",
"x. c #DF7A71",
"c. c #EC8F3F",
"v. c #EC873E",
"b. c #EE9A3F",
"n. c #DB8644",
"m. c #E28B41",
"M. c #E29A42",
"N. c #F09851",
"B. c #EAA941",
"V. c #E7A441",
"C. c #EFB241",
"Z. c #F0B541",
"A. c #F09D61",
"S. c #F5A965",
"D. c #F7D161",
"F. c #F6DA7D",
"G. c #707382",
"H. c #979F9B",
"J. c #93969A",
"K. c #AD9CA2",
"L. c #A8AFAA",
"P. c #AEAFBA",
"I. c #EEA492",
"U. c #D5ABA7",
"Y. c #BDC6BA",
"T. c #B8C1B5",
"R. c #FFEE83",
"E. c #D9E2D1",
"W. c #E2ECD9",
"Q. c #E1E3E8",
"!. c #E8EDE8",
"~. c #F4FEE8",
/* pixels */
"                                                                                                    ",
"                                                                                                    ",
"                                                                                                    ",
"                                                                                                    ",
"                                                                                                    ",
"                                                                                                    ",
"                                                                                                    ",
"                              k                                                                     ",
"                            < ; O O                             . . .                               ",
"                            k j , o .                       6 . o : h D                             ",
"                          U E E L ; . ; 6               6 D 6 . ; L E E U S                         ",
"                        . R T.E.J.h . . . o . . . . . . . o . . 5 H.E.Y.U X ;                       ",
"                        . T Y.W.H.h . O % % & & 3 & & & % % $ . h H.W.Y.T . >                       ",
"                        . T Y.W.H.5 . 8 s s ( ) ) ) ( ( d s 7 . h H.W.Y.T . >                       ",
"                        . T Y.W.H.h . w 5.9.@.@.&.&.&.@.9.7.w . h H.W.Y.T X >                       ",
"                        . T T.W.L.L G C 0.0.@.&.&.&.&.@.0.0.C D L L.W.Y.U X :                       ",
"                        . Y P.Q.!.~.~.I.&.&.&.&.&.&.&.&.&.&.I.~.~.!.Q.P.P . o                       ",
"                        . W P.Q.!.~.~.I.&.&.&.&.&.&.&.&.&.&.I.~.~.!.Q.P.P .                         ",
"                        . G G.J.K.U.U.x.&.&.&.&.&.&.&.&.&.&.x.U.U.K.J.G.k .                         ",
"                        . , k G H i.i.g.&.&.&.&.&.&.&.&.&.&.g.i.i.H G l h . o                       ",
"                        . X + & u 6.0...&.&.&.&.&.&.&.&.&.&.X.e.7.w 3 $ X . ;                       ",
"                    5 O . % 7 u Q { r.X.&.&.&.&.&.&.&.&.&.&.X.r.{ / w 9 $ X ; k                     ",
"          S . . . . . . . 8 Q 7. .@.&.&.&.&.&.&.&.&.&.&.&.&.&.&.@.0.7.>.9 . . . o .                 ",
"          S X X @ # # # # t _ t.p.=.=.*.&.X.&.&.&.&.&.&.&.&.&.=.=.O.t._ t # # & & @ X o             ",
"          S X + t ) ` ` ` o.-.n.m.m.m.j.e.r.&.&.&.&.&.@.r.e.s.c.c.m.n.-.o.` ` ` ` t $ o             ",
"            . # ^ &.&.&.&.;.b.C.Z.Z.Z.k.5.9.X.&.&.&.&.a.9.5.k.Z.Z.Z.Z.b.;.&.&.&.&.) 3               ",
"            o 4 f [ [ X.X.%.v.M.B.Z.Z.n.f.f.a.X.a.X.X.a.f.d.m.Z.Z.V.M.k.=.+.+.[ | `                 ",
"                S . $ / 4.5.4.q.h.B.Z.D.R.F.d.w.9.5.0.d.F.R.D.Z.B.k.q.5.7.4.>.$ .                   ",
"                  . + >.4.5.5.q.h.Z.Z.D.R.F.d.w.5.5.w.d.F.R.D.Z.V.h.q.5.5.4.,.                      ",
"                        Q V >.<.y.z.c.N.S.A.s.r.r.r.r.s.A.S.N.m.v.y.<.B s s                         ",
"                          x v M 3.%.=.;.z.z.&.@.@.@.@.#.l.z.l.=.%.3.M x 7                           ",
"                            c x s | O...X.X.a.@.a.&.@.@.+.+.+.X.| s x g g                           ",
"                            2 g e p p / 2.6.e.r.r.r.r.r.6.2.( ! p e - g                             ",
"                            o X . X X = x x ,.6.9.9.5.,.v x = o . . . .                             ",
"                            3 & + X . - M M 6.9.0.e.9.4.M N - . . + @ 3                             ",
"                          y ^ ( t + . u 0.} ..X.r.r.+...} } u . + t ( (                             ",
"                          y ] +.^ $ . p &.&.&.&.&.&.&.&.&.&.p . + ^ +.[ p                           ",
"                      r 9 ! O.+.) 9 * ^ &.&.&.&.&.&.&.&.&.&./ * 9 ) @.[ ! q                         ",
"                  X + ] @.&.&.@...9.5...&.&.&.&.&.&.&.&.&.&.X.9.9.r.&.&.&.@.[ #                     ",
"                ; . + ] @.&.&.&...9.5...&.&.&.&.&.&.&.&.&.&.r.0.9...&.&.&.@.] @ .                   ",
"                o . + ] @.@.+...' s i d ^ ( { ........{ ( ^ d M s '  .X.@.@.] + . 5                 ",
"                o . X ] @.+.e.7.Q * & & * 7 ~ 9.0.0.9.~ 9 * * % * Q 7.r.+.@.] + . 5                 ",
"                ; . + ] @.X.e.6.a $ . . X $ B 2.2.8.2.B + . . . $ a ' e.+.@.] + . ;                 ",
"                . . + ] @.X.X.{ d $ . O , 1 Z A A A A Z 1 , O . $ p } X.@.@.] + . o                 ",
"                  . + ] @.&.&.+.^ $ . , l l F I I I I F l l , . + ^ X.&.&.@.] + . o                 ",
"                  X 2 ` | | | [ p $ . 2 b n J I I I I J n b 2 . $ p [ | | | ` #                     ",
"                      r q q q 9 * X . 0 1.C K I I I I K C 1.0 . X * 9 q q e                         ",
"                        . . . . . . . w 5.4.K I I I I K 8.5.w . . . . . . .                         ",
"                          ; o . @ 8 9 ! 0.7.m z z z z m 7.} ! 9 8 @ X o ;                           ",
"                          j : + y +.&.&.&.+.8 X . . X 8 +.&.&.&.+.y $ : S                           ",
"                            ; + y +.&.&.&.O.8 X . . O 8 O.&.&.&.+.y + o                             ",
"                                    #.$.$.O.0 > ; X ;                                               ",
"                                                                                                    ",
"                                                                                                    ",
"                                                                                                    ",
"                                                                                                    ",
"                                                                                                    ",
"                                                                                                    ",
"                                                                                                    ",
"                                                                                                    ",
"                                                                                                    "
};
