/* XPM */
static char *_bd94c897a6e4484fd2770c5bb72343f28AroP3H8FsUoeUw[] = {
/* columns rows colors chars-per-pixel */
"50 50 136 2 ",
"   c None",
".  c #302639",
"X  c #332A3D",
"o  c #563A3F",
"O  c #362E41",
"+  c #3A3345",
"@  c #3E384A",
"#  c #403B4D",
"$  c #5B3F41",
"%  c #433E50",
"&  c #5D4042",
"*  c #53444F",
"=  c #464253",
"-  c #484556",
";  c #4E4D5D",
":  c #5D4D55",
">  c #5C505A",
",  c #624444",
"<  c #674947",
"1  c #684A47",
"2  c #634B4F",
"3  c #6B4C49",
"4  c #6F504B",
"5  c #72524C",
"6  c #78574F",
"7  c #77584E",
"8  c #79584F",
"9  c #6F5350",
"0  c #65565D",
"q  c #685459",
"w  c #6B585B",
"e  c #765B57",
"r  c #7C5C51",
"t  c #7F6152",
"y  c #7E665E",
"u  c #515161",
"i  c #575867",
"p  c #565868",
"a  c #5A5C6B",
"s  c #625761",
"d  c #6B5E65",
"f  c #5E606F",
"g  c #5E6271",
"h  c #726265",
"j  c #786260",
"k  c #7F6863",
"l  c #75676A",
"z  c #75686B",
"x  c #7D6D6C",
"c  c #626675",
"v  c #6B6670",
"b  c #6E6873",
"n  c #656B7B",
"m  c #6B6E7C",
"M  c #766E74",
"N  c #6C717F",
"B  c #7C777E",
"V  c #816253",
"C  c #876856",
"Z  c #896B57",
"A  c #856759",
"S  c #866C5F",
"D  c #8C6E58",
"F  c #8E7159",
"G  c #92755B",
"H  c #94785C",
"J  c #876E62",
"K  c #8C7364",
"L  c #8F7861",
"P  c #85716C",
"I  c #89766C",
"U  c #8C7A6C",
"Y  c #947C63",
"T  c #997F65",
"R  c #937E6A",
"E  c #847473",
"W  c #8A7A74",
"Q  c #81777A",
"!  c #867978",
"~  c #8F807E",
"^  c #908275",
"/  c #948678",
"(  c #6D7484",
")  c #717683",
"_  c #747986",
"`  c #7E7A82",
"'  c #717989",
"]  c #787F8B",
"[  c #827C81",
"{  c #77808F",
"}  c #7C8491",
"|  c #7F8895",
" . c #868084",
".. c #898385",
"X. c #87878C",
"o. c #8C898D",
"O. c #948D85",
"+. c #978F88",
"@. c #94918F",
"#. c #808793",
"$. c #848C97",
"%. c #8A8A91",
"&. c #838C99",
"*. c #89929E",
"=. c #939495",
"-. c #92949A",
";. c #AC9B8D",
":. c #A59895",
">. c #AFA096",
",. c #ADA297",
"<. c #B5A799",
"1. c #8C95A0",
"2. c #8D96A1",
"3. c #8D97A2",
"4. c #8E97A2",
"5. c #8D96A2",
"6. c #8F98A3",
"7. c #8F99A4",
"8. c #8F99A4",
"9. c #9297A0",
"0. c #9099A4",
"q. c #909AA4",
"w. c #909AA5",
"e. c #939BA4",
"r. c #929BA6",
"t. c #939CA5",
"y. c #939CA7",
"u. c #939DA7",
"i. c #949DA7",
"p. c #949EA7",
"a. c #929BA5",
"s. c #949EA8",
"d. c #949EA8",
"f. c #97A0AA",
"g. c #B6AAA0",
"h. c #B6B5B7",
/* pixels */
"                                                                                                    ",
"                            g p p p p c                               g p p                         ",
"                    ' ' ' ' ' ' ' ' ' ' ' ' ' ' ' ' ' ' ] ' ' ' ' ' ' ] ' ' '                       ",
"                ; N *.*.*.*.*.*.1.*.*.*.*.*.*.*.*.*.*.*.&.*.*.*.*.*.*.*.*.*.' u                     ",
"                c ] y.*.$.*.*.*.1.1.*.1.*.1.&.#.#.$.*.1.1.1.1.1.*.*.*.&.$.8.| c g                   ",
"              a #.8.y.N g ' ' ] ' ' ' ' ] ' n i i g ' ' ' ] ' ' ' ] ' n f &.f.3.m u                 ",
"            u a &.f.y.v : d d s i d l l l l s * * : l l l l l l z z l 0 > #.u.u.m u                 ",
"            ; a $.d.y.h < 7 3 $ $ < 8 V r r 4 $ $ < r r r r e 6 8 t 8 1 2 %.u.f.m ;                 ",
"            u a &.p.p.x 7 Z V 5 5 8 D D G D V 5 4 r D F F F C 7 C F F t e %.u.u.m ;                 ",
"            ; a $.f.p.E t G C 7 V Z H H H H Z 6 6 V G H H H Z r D H H D S =.u.f.m u                 ",
"            ; a $.d.p.P r G Z 8 D H H H H H Z 6 6 V G H H H Z 6 D H H H Y =.f.u.m u                 ",
"            u a $.d.y.E V G Z 8 D H H H H H Z 6 6 V G H H H G Z F H H H Y =.f.u.m ;                 ",
"            u a $.d.u.E r G Z V G H H H H H Z 6 7 V G H H H H H H H H H R =.u.u.m ;                 ",
"            ; a $.d.u.P V F G G H H H H H H C 6 r V G H H H H H H H H H T -.d.u.m ;                 ",
"            u a $.0.$.x V G H H H H H H H H Z 6 6 V G H H H H H H H H H Y X.*.u.m ;                 ",
"            i c &.&.N j r G H H H H H H H H Z 6 6 V G H H H H H H H H H F B X.p.N i #               ",
"          ; ) &.0.[ 2 3 V F H H H H H H H H Z 6 6 V H H H H H H H H H H G y Q p.*.' i               ",
"          u _ i.y.[ , V C H H H H H H H H H Z 6 6 V G H H H H H H H H H G C W d.p.$.a ;             ",
"          u _ i.y.[ 5 C H H H H H H H H H H Z 6 6 V H H H H H H H H H H H G / d.p.$.a -             ",
"          u _ i.f.[ V C H H H H H H H H H H Z 6 8 V G H H H H H H H H H H H / d.p.$.a -             ",
"          u _ i.f.o.V C H H H H H H H H H H Z 6 7 V H H H H H H F G G H H H / p.d.$.a -             ",
"          u _ i.f.[ 8 Z H H H H H H H H H H Z 6 7 V G H H H H H C V G H H H / p.d.$.a -             ",
"          u ] d.d...8 Z H H H H H H H H H H Z 6 r V G H H H H G V V G H H H / p.d.$.a -             ",
"          u _ d.d.[ 8 D H H H H Y H H H Y H Z 6 6 V G Y T H G H C V G H H H / p.d.$.a -             ",
"          ; _ d.i.[ V C H H H T <.;.A W O.Y V V 6 V G ;.<.L I @.U F H H H H / p.d.$.a -             ",
"          u _ d.f.o.V C H H H T >.:.P o.=.Y C 5 6 V G >.h...! o.R H H H H H / d.d.&.a -             ",
"          u _ d.i.[ V D H H H F A E 9.r.=.R C V 6 V H +.d.e.[ V D H H H H H / d.d.$.a -             ",
"          u _ d.i.[ 5 C H H H H D J ! ! I Y C 6 6 V G U ! ! P Z G H H H H H / d.d.$.a -             ",
"          ; _ d.i.[ V D H H H H L D V V V G C 5 V V G Z V V C G H H H H H H / p.d.$.a -             ",
"          u _ d.i.o.V C H H H H H G D D G G Z V 6 V G G D F F G H H H H H H / p.d.$.a -             ",
"          u _ d.i.[ V C H H H H H H H H H H C 6 6 V G H H H H H H H H H H H / p.d.$.a -             ",
"          u _ d.i.[ 5 D H H H H H H H H H G C 6 6 V G H H H H H H H H H H H / p.d.$.a -             ",
"          u _ d.d...8 D H H H H H H H H H H C 6 6 V G H H H H H H H H H H H / p.p.$.a -             ",
"          u _ r.4.[ 7 Z H H H H H H H H G F C 6 6 V Z G H H H H H H H H H H ^ *.y.$.a =             ",
"          ; _ 0.} M 6 Z H H H H H H H H F V 6 6 6 6 V C H H H H H H H H H H U _ *.$.a =             ",
"        c ) $.*.b w 7 D H H H H D D H H F V 4 < 1 3 6 C H H H H H G Z D H H K l %.*.{ c -           ",
"      u c 4.p.-.q 1 r D H G H G V V G H D r , o o , 6 C G H H H H D 8 C H H Z 8 ..d.d._ ; #         ",
"      u c 4.p.*.j r D G D V Z G V V L H D r < $ o , 6 C H H H H H D V Z H H Z 8 ..d.d._ ; #         ",
"      ; c 0.p.-.J r D Z V 4 r C 5 6 Z D C 4 $ $ o & 3 V Z Z Z D Z V 5 8 Z Z C 8 ..d.p._ ; #         ",
"      u c 0.p.-.J 6 8 6 5 $ < 5 , , 6 6 5 $ o $ o o o 1 6 6 6 8 6 5 o 3 8 8 6 8 ..d.f._ u #         ",
"      u n w.d.w.X.[ ....[ [ [ ..] ` ....[ [ ` ` ` ` ` [ .......... .` [ ..X. .X.-.d.d._ ; #         ",
"      u g | 3.8.d.d.d.d.d.d.d.d.d.d.y.d.d.d.d.d.w.u.y.d.d.d.d.d.u.d.d.d.u.u.u.f.7.4.4.( ; #         ",
"      u g ' ' } 8.d.d.d.d.d.d.d.d.d.y.y.d.d.d.d.u.u.d.d.d.d.y.d.d.d.u.d.d.d.f.y.$.' { n u #         ",
"      ; a ( ' ' #.&.&.&.&.&.&.&.1.| | | &.&.&.&.&.&.&.&.&.&.&.$.&.&.&.&.&.&.&.| ' ' ' c ; #         ",
"      ; a ( ( ( ' ( ' ' ' ' ' ( ' ' ' ' ' ' ' ' ' ' ( ' ' ' ' ( ' ' ( ' ' ' ' ' ( ( ( g ; @         ",
"      + @ p a g ( ' ' ' ' ' ' ' ' ' ' ' ( ' ( ' ' ' ' ' ' ' ' ' ' ' ' ' ( ' ' ( c a a ; + X         ",
"      . O @ - p g ( ( g g ( n n ( g g ( ( g n n n n n n n n n n n n c n ( c n n a ; - + . .         ",
"      . O O @ ; ; ; u u u u u u u u u u u u u u u u u u u u u u u u u u u u u u u - O . . .         ",
"          . + @ @ @ @ @ @ @ @ @ @ @ @ @ @ @ @ @ @ @ @ @ @ @ @ @ @ @ @ @ @ @ @ @ @ + O . .           ",
"            . . . . . . . . . . . . . . . . . . . . . . . . . . . X . . . . . . . .                 "
};
