/* XPM */
static char *_897018903c8406ee8791d8cf51feecaot3LfWwmV1DrSevQ[] = {
/* columns rows colors chars-per-pixel */
"43 50 234 2 ",
"   c None",
".  c #1F381E",
"X  c #1F281F",
"o  c #2B2A1F",
"O  c #24361E",
"+  c #3F1C24",
"@  c #232322",
"#  c #282521",
"$  c #242C22",
"%  c #282828",
"&  c #2A2927",
"*  c #3B2C20",
"=  c #342722",
"-  c #263722",
";  c #35352A",
":  c #462921",
">  c #483423",
",  c #423C34",
"<  c #5C2B22",
"1  c #752325",
"2  c #673821",
"3  c #712B23",
"4  c #542922",
"5  c #1D471C",
"6  c #1F521C",
"7  c #1E601A",
"8  c #23681D",
"9  c #2A4722",
"0  c #2E5823",
"q  c #3A4336",
"w  c #346625",
"e  c #3D7230",
"r  c #2E5D1A",
"t  c #544C1E",
"y  c #6E591E",
"u  c #596E1D",
"i  c #4E4228",
"p  c #4B433A",
"a  c #57493B",
"s  c #4F5D28",
"d  c #724423",
"f  c #784F29",
"g  c #6C4F2B",
"h  c #466824",
"j  c #566D22",
"k  c #477D26",
"l  c #546F38",
"z  c #606023",
"x  c #7B6339",
"c  c #7E6E1E",
"v  c #554646",
"b  c #595648",
"n  c #6B5845",
"m  c #785A45",
"M  c #4C6443",
"N  c #59714B",
"B  c #597150",
"V  c #6E6951",
"C  c #7D7260",
"Z  c #871D28",
"A  c #AD2926",
"S  c #A52227",
"D  c #D32728",
"F  c #84562B",
"G  c #855933",
"H  c #896337",
"J  c #936B38",
"K  c #9C733B",
"L  c #9D7A3F",
"P  c #926D2A",
"I  c #A47A30",
"U  c #946F1B",
"Y  c #886545",
"T  c #956B45",
"R  c #98714B",
"E  c #816859",
"W  c #9A7756",
"Q  c #897250",
"!  c #A37A42",
"~  c #A37C50",
"^  c #8B746B",
"/  c #805C4E",
"(  c #198815",
")  c #189C13",
"_  c #339319",
"`  c #15BB0F",
"'  c #18A812",
"]  c #28BC19",
"[  c #33B71B",
"{  c #32A617",
"}  c #278324",
"|  c #378924",
" . c #389826",
".. c #358E3F",
"X. c #3FA726",
"o. c #4A8A25",
"O. c #459326",
"+. c #4C9E26",
"@. c #5D8426",
"#. c #6B8436",
"$. c #66912C",
"%. c #40A028",
"&. c #49AE26",
"*. c #59AC24",
"=. c #4C8517",
"-. c #17D90E",
";. c #1CD711",
":. c #16C80F",
">. c #24D20D",
",. c #29C919",
"<. c #29C419",
"1. c #2AD316",
"2. c #33CD16",
"3. c #18E80C",
"4. c #10F808",
"5. c #13F30A",
"6. c #1DE111",
"7. c #37F807",
"8. c #35F508",
"9. c #2BEE0D",
"0. c #6BD513",
"q. c #4CCC1B",
"w. c #779B6A",
"e. c #7DA36E",
"r. c #519047",
"t. c #9E9E0D",
"y. c #8E9518",
"u. c #A89117",
"i. c #96B816",
"p. c #B8AA13",
"a. c #939430",
"s. c #B79B2B",
"d. c #A78438",
"f. c #B08E35",
"g. c #91AD2D",
"h. c #BCA02C",
"j. c #C8B619",
"k. c #C2A729",
"l. c #CBB526",
"z. c #C8A634",
"x. c #D2AD3A",
"c. c #DAB738",
"v. c #CFB230",
"b. c #B9D80E",
"n. c #B5F802",
"m. c #B2F00A",
"M. c #AAED08",
"N. c #A5D229",
"B. c #DACA17",
"V. c #D5CA12",
"C. c #E5DD0E",
"Z. c #E6DB13",
"A. c #E9E20C",
"S. c #EDE805",
"D. c #F2EE08",
"F. c #F6F403",
"G. c #F8F800",
"H. c #F7F405",
"J. c #F1E513",
"K. c #EEEB0A",
"L. c #D9C520",
"P. c #E5C92D",
"I. c #E8CF29",
"U. c #E9D324",
"Y. c #E3C637",
"T. c #AB8345",
"R. c #B78B46",
"E. c #BB9349",
"W. c #A8825C",
"Q. c #B69258",
"!. c #B08C5D",
"~. c #87A857",
"^. c #82A252",
"/. c #BEA048",
"(. c #9F917A",
"). c #8E8868",
"_. c #AB8966",
"`. c #B18D67",
"'. c #B6926B",
"]. c #BA9767",
"[. c #A79475",
"{. c #BA9A78",
"}. c #A6906F",
"|. c #8AB779",
" X c #81AA72",
".X c #C59A47",
"XX c #D3A44D",
"oX c #D6A750",
"OX c #C19F6E",
"+X c #C5A47A",
"@X c #D7B363",
"#X c #A3C57D",
"$X c #89CF7C",
"%X c #5B64BE",
"&X c #5B579C",
"*X c #536BF2",
"=X c #5D6AD2",
"-X c #7585E8",
";X c #9EA1BE",
":X c #B1A49E",
">X c #CBAB83",
",X c #CCAC85",
"<X c #D2B28A",
"1X c #DABD95",
"2X c #C7B393",
"3X c #C6B6A9",
"4X c #99D385",
"5X c #95C682",
"6X c #A4D789",
"7X c #AFD192",
"8X c #B5F49D",
"9X c #ABE595",
"0X c #DEC199",
"qX c #C3DB9D",
"wX c #E1C59D",
"eX c #EDCE9A",
"rX c #DAC7B2",
"tX c #E6CBA3",
"yX c #ECD4AC",
"uX c #ECD8BA",
"iX c #F3DAB2",
"pX c #F6DFBA",
"aX c #F0D7AF",
"sX c #F8E1B9",
"dX c #F6E1BF",
"fX c #8D92CD",
"gX c #ABB0E5",
"hX c #B7B4D5",
"jX c #C5BFD1",
"kX c #CCC7D4",
"lX c #E8D8C3",
"zX c #F8E9D0",
"xX c #EBE4E2",
"cX c #C5C8EB",
/* pixels */
"                                                                                      ",
"                                                                                      ",
"                                                                                      ",
"                                                                                      ",
"                                  @ 0  .O.%.%.%.%.| 9 @                               ",
"                                - 0 | <.,.,.,.,.,.[ } 0 -                             ",
"                              X 9 | ,.5.4.4.4.4.4.3.] | 9 @                           ",
"                            6 ( ' 1.6.5.4.4.4.4.4.5.;.] ' ( 5                         ",
"                          $ 7 :.4.4.4.4.4.4.4.4.4.4.4.4.4.` 6 $                       ",
"                        - w _ -.4.4.4.4.4.4.4.4.4.4.4.4.4.;.} 0 $                     ",
"                      - q e &.2.8.8.7.7.7.7.7.7.7.7.7.8.9.1.[ | 9 O                   ",
"                    $ w o.#.a.g.N.m.n.n.n.n.n.n.n.n.n.M.g.*.1.] | 0 @                 ",
"                  @ $ w @.a.z.c.I.H.G.G.G.G.G.G.G.G.F.S.l.g.q.<.X.w X @               ",
"                  @ # i U j.C.J.J.G.G.G.G.G.G.G.G.G.F.S.S.V.g.$.O.w X X               ",
"                  a > f I V.F.J.J.H.G.G.G.G.G.G.G.F.C.C.D.C.l.a.@.s * a               ",
"            ! ].>XY d I v.Z.J.Y.P.D.G.G.G.G.G.G.F.S.l.s.C.D.S.j.c d 2 R >X].!         ",
"            G ].0XW.P z.P.L.L.P.U.H.G.G.G.G.J.Z.I.l..XE.l.C.S.V.P J W.+X0X`.H         ",
"            d '.iX+XI j.Z.s.s.Z.G.G.G.G.F.F.I.oXE.T.OX+XQ.h.C.V.d.{.yXiXiX_.d         ",
"              W '.].Q.s.p.f.z.J.G.G.G.G.J.I.x..XQ.].+X>X+X@XY.v.d.].0X,X'.~           ",
"              d d ~ >XT F R.Y.J.H.G.H.G.I.oXR.! ].<X<X1XyXeX@X.XT.!.,XW 2             ",
"              * > W >X~ J ! .Xc.P.P.P.P.x.R.K G `.<X1XtXwX>XT.f.j.s.n x               ",
"              @ & E OXQ.d.K I .X.XoXXXXXR.K G G `.<XtX1X,X_.F u.C.t.o @               ",
"              @ @ g R k.j.P f g G ~ R.R.K F R `.>X>X`.W n n G s.S.t.o @               ",
"                o > d p.B.U g p b ^ Q T H G `.<X>X_./ v v b H s.Z.y.o @               ",
"                  = > f.z.P / :XfX=X&XF T '.<XtX_.m &X%X;X:XG I c.P - o               ",
"                    ; J d.F W lXhX*X&X^ {.1XyXiX:X^ %X*XcX3Xm F R x #                 ",
"                      f F J !.tXhX*X-XkXuXaXpXpXlXjX*X*XjX2Xv = > ;                   ",
"                        f f Q +X:XfXgXxXzXpXsXsXzXxXgXfX:X_., @ @                     ",
"                          ; i R >X3XlXzXsXsXsXsXdXpXuXrX'.Y ; @                       ",
"                        q B B H R '.,XeXtXtXtXtXtX0X>X`.R H V N                       ",
"                      o q |.#XH d d R ,X,X<X<X,X<X+XT d d Q 6Xe.; @                   ",
"                @ @ ; B e.9X$XN s j #.^.~.~.~.~.~.^.#.u h r.6X4Xw.B % @               ",
"              & & & p |.8X8X$X..}  .%.%.%.%.%.%.%.%.%. .} ..4X8X8Xe.; % %             ",
"            @ V :X[.[.7X9Xw.N s h O.%.%.%.%.%.O.%.%.O. .h s B e.8X7X(.(.(.V @         ",
"            @ ).tXiXyX9X|.l - t u o.O.O.&.*.*.*.&.O.O.o.z t $ M 5X9XuXiXyXC @         ",
"            @ E 1X1X2X).M e | { { u z z y.b.b.b.y.z z j { _ . ; M ).0X0X1XV @         ",
"            @ V [.[.).v - w { 6.<.u u y t.G.G.S.u.z z =.>.` 5 @ @ b }.}.}.n @         ",
"              , p p p % $ - 8 -.3.>.{ o.i.G.G.F.i.o.[ >.5.` 5 @ # ; v , p ,           ",
"                @ @ @ % % @ 5 ) ` ` ] ] 0.n.n.M.0.] 1.;.:.( . @ @ @ @ @ @             ",
"                  % % % % X X . 5 5 ( 6.8.7.7.7.3.-.<. .7 O X o @ # @ %               ",
"                  % % % % @ @ @ # * r ' ' ' ' ' { _ k z < < : = @ @ % %               ",
"                  % % % % % @ @ = 2 > O X . X O 4 1 1 Z A A d > # @ % %               ",
"                    % % % % % @ = : * % @ % @ @ + 4 Z S D A < : # @ %                 ",
"                      % % % % % @ @ @ @ $ % % % @ + S D D A : @ % %                   ",
"                            % % % % % % % % % % @ = 4 1 1 3 +                         ",
"                              % % % % % % % % % # # @ @ @ @                           ",
"                                        % % % % %                                     ",
"                                          % % %                                       ",
"                                                                                      ",
"                                                                                      "
};
