/* XPM */
static char *a1fb8767b8604a9cc491253dff5a62ecTdFIa2B1LwXT99UD[] = {
/* columns rows colors chars-per-pixel */
"49 50 211 2 ",
"   c None",
".  c #321F29",
"X  c #331F29",
"o  c #341F29",
"O  c #33202A",
"+  c #342029",
"@  c #34202A",
"#  c #35202A",
"$  c #35212A",
"%  c #36212B",
"&  c #36222B",
"*  c #37222B",
"=  c #37232C",
"-  c #38232B",
";  c #38232C",
":  c #39232D",
">  c #39242C",
",  c #39242D",
"<  c #3A242D",
"1  c #3A252D",
"2  c #38262D",
"3  c #39262D",
"4  c #3B262D",
"5  c #3A252E",
"6  c #3B252E",
"7  c #3B262E",
"8  c #3C262E",
"9  c #3C262F",
"0  c #372632",
"q  c #3E2730",
"w  c #3E2830",
"e  c #3F2830",
"r  c #3F2930",
"t  c #3F2831",
"y  c #3F2931",
"u  c #402931",
"i  c #412A31",
"p  c #412B31",
"a  c #422B31",
"s  c #412932",
"d  c #412A32",
"f  c #422B33",
"g  c #432B33",
"h  c #432C32",
"j  c #432C33",
"k  c #442C33",
"l  c #452E33",
"z  c #432E37",
"x  c #442C34",
"c  c #452D34",
"v  c #462D35",
"b  c #462E34",
"n  c #462E35",
"m  c #472F36",
"M  c #482F36",
"N  c #473036",
"B  c #483034",
"V  c #483035",
"C  c #4A3135",
"Z  c #483235",
"A  c #483036",
"S  c #493136",
"D  c #493037",
"F  c #4A3037",
"G  c #4A3137",
"H  c #4A3236",
"J  c #4B3337",
"K  c #4C3337",
"L  c #4C3437",
"P  c #4D3437",
"I  c #4B3238",
"U  c #4C3239",
"Y  c #4D3339",
"T  c #4D333A",
"R  c #4D343A",
"E  c #4E343A",
"W  c #4F343A",
"Q  c #4F343B",
"!  c #4F353B",
"~  c #503739",
"^  c #50353B",
"/  c #50363A",
"(  c #50363B",
")  c #51373B",
"_  c #50363C",
"`  c #51363C",
"'  c #52373C",
"]  c #52373D",
"[  c #53373D",
"{  c #52383A",
"}  c #52383C",
"|  c #53383D",
" . c #54393D",
".. c #553B3C",
"X. c #553A3D",
"o. c #54383E",
"O. c #54393E",
"+. c #55393E",
"@. c #55393F",
"#. c #553A3F",
"$. c #573B3E",
"%. c #563A3F",
"&. c #573A3F",
"*. c #573B3F",
"=. c #573C3C",
"-. c #583C3F",
";. c #583D3F",
":. c #5A3E3F",
">. c #5C403F",
",. c #5C413F",
"<. c #573B40",
"1. c #583B40",
"2. c #583C40",
"3. c #593C40",
"4. c #593D40",
"5. c #5A3D41",
"6. c #5A3E40",
"7. c #5B3E40",
"8. c #5B3F40",
"9. c #5A3E41",
"0. c #5B3E41",
"q. c #5B3F41",
"w. c #5C3F42",
"e. c #5D4140",
"r. c #5D4041",
"t. c #5E4141",
"y. c #5E4240",
"u. c #5E4241",
"i. c #5F4241",
"p. c #5F4341",
"a. c #5D4042",
"s. c #5E4042",
"d. c #5E4142",
"f. c #5E4143",
"g. c #5F4143",
"h. c #5F4242",
"j. c #5F4243",
"k. c #604342",
"l. c #604243",
"z. c #604343",
"x. c #614443",
"c. c #624543",
"v. c #604344",
"b. c #614344",
"n. c #614444",
"m. c #624444",
"M. c #624445",
"N. c #624545",
"B. c #634545",
"V. c #644645",
"C. c #654745",
"Z. c #644646",
"A. c #654746",
"S. c #664746",
"D. c #644844",
"F. c #674945",
"G. c #664846",
"H. c #674946",
"J. c #664847",
"K. c #674847",
"L. c #674947",
"P. c #684946",
"I. c #684947",
"U. c #684A47",
"Y. c #694A47",
"T. c #694B47",
"R. c #6B4C47",
"E. c #694A48",
"W. c #694B48",
"Q. c #6A4B48",
"!. c #6A4C48",
"~. c #6B4C48",
"^. c #6B4C49",
"/. c #6C4D48",
"(. c #6C4D49",
"). c #6D4D49",
"_. c #6D4E49",
"`. c #6E4F49",
"'. c #6D4E4A",
"]. c #6E4E4A",
"[. c #6E4F4A",
"{. c #6F4F4A",
"}. c #6F504A",
"|. c #6F504B",
" X c #70504A",
".X c #70514A",
"XX c #70504B",
"oX c #70514B",
"OX c #71514B",
"+X c #71524B",
"@X c #72524B",
"#X c #71524C",
"$X c #72524C",
"%X c #73524C",
"&X c #72534C",
"*X c #73534C",
"=X c #74534D",
"-X c #74544C",
";X c #74544D",
":X c #75544D",
">X c #75554D",
",X c #76554D",
"<X c #76564D",
"1X c #76554E",
"2X c #76564E",
"3X c #77564E",
"4X c #77574E",
"5X c #78574E",
"6X c #78574F",
"7X c #78584F",
"8X c #79584F",
/* pixels */
"8X5X2X2XB.@.J.8X8X}.@.@.-.2X2Xv.].8XJ.@.@.E 2 @.@.-.@X2Xv.@.P.5X2XD.> *.@.@.@X5XH H J.2X].f.2X@X@.",
"8X8X8X8X2XA.J.8X8X@X@.@.@.2X5Xf.].2X2X-X/.@.} @.@.$X8X8XB.J.2X8X8X2X/.@.@.*.2X8X@Xf.P.8X2X2X8X2X@.",
"8X8X8X8X5XA.J.8X8X2X].<.@X5X8X2X5X8X8X8X].@.@.*.@.2X8X8XB.R.8X8X8X8X2X].-.@X2X8X8XA.P.8X8X8X8X@X- ",
"5X8XA.$X8X$X2X8X8X5X2X<.2X5X8X8X5X8X8X8X2XW.*.@.-.2X8X8X@X2X8X8X8X8X8X2X-.2X8X8X8XJ.P.8X}.J.-Xf.$ ",
"5X8X{.2X8X8X8X8X8X8X2X<.2X8X8X8X8X].].8X8X@X@.*.<.2X8X8X5X8X8X8X6X8X8X2X1.2X8X8X8X@X@X8X2X].$X^ o ",
"5X8X5X8X8X8X8X8X8X8X$X0.8X8X8X8X/.J.J.].8X}.*.@.@.2X8X8X8X8X5X$X].8X8X2X@.5X8X8X8X5X8X8X8X8X@X) $ ",
"5X8X8X8X8X8X8X8X8X8X$X0.5X8X8X8X].J.P.].8X}.@.@.@.2X8X8X8X8X8XW.v.8X8X5XP.5X8X8X8X8X8X8X8X8X].h o ",
"5X].2X8X8X8X8X8X8X6X2XA.8X8X8X8X8X].}.8X8X2XB.*.A.8X8X8X8X8X8XW.B.8X8X8X8X8X8X8X8X8X8X8X8X2Xf.+ $ ",
"5X0.$X5X5X8X8X5X8X8X8X8X8X8X8X8X8X8X8X8X8X8X=X1.5X8X].2X8X8X8X}.W.8X8X8X8X8X8X8X8X8X8X8X5X{.U o o ",
"5X0.$X8X5X2X2X5X8X8X5X@X8X8X8X8X8X8X8X8X8X8X@X-.8X8Xf.}.8X8X8X8X8X8X8X5X$X8X8X8X8X=X2X8X5X{.) . $ ",
"2X0.$X8X8XA.J.8X8X8X=X0.=X8X8X8X8X8X8X8X8X8X$X0.8X8Xw.}.8X8X8X8X8X8X5X@X@.5X5X8X8XA.P.8X8X{.) - . ",
"8X0.$X8X8XA.J.8X8X8X$X@.1.2X8X8X8X8X8X8X8X8X$Xf.8X8Xw.@X8X8X8X8X8X5X=X@.-.2X8X8X5XA.W.8X8X{.@.@.$ ",
"2X0.$X8X8XJ.J.8X8X8X$X0.2X8X8X8X8X8X8X8X8X8X8X8X8X8X0.$X8X8X8X8X8X8X=X@.1.5X6X6X5XA.P.8X8X{.f.}.o ",
"8X0.$X8X8X2X7X8X8X8X2X@.2X8X8X8X8X8X8X8X8X8X8X8X8X8X2X6X8X8XW.K.8X8X=X@.@.5X8X5X8X5X5X8X8X{.w.@X. ",
"8X0.$X8X8X8X8X8X@XB.$X0.8X8X8X8X8X8X8X8X8X8X$Xf.8X8X8X8X8X8XJ.A.8X8X2X@X-.5Xz.@X8X8X8X8X8X{.w.2X^ ",
"8X0.$X7XJ.}.8X8X].f.2X@.f.2X8X8X8X8X8X8X8X8X$X0.8X8X8X8X8X8XP.A.8X8X6X=X-.2Xw.@X8X8X8X8X8X{.w.6X[.",
"5X$X5X8X@XJ.].8X].v.2X@.<.f.2X8X8X8X8X8X8X8X=X@.x.2X8X8X8X5XW.A.8X=XB.z.-.5Xw.@X5XW.v.].5X2XXX8X2X",
"6X8X5X8X8XA.J.8X2XP.z.@.<.K.6X8X8X8X8X8X8X8X@X0.].5X8X8X8X].A.@X5X2XJ.@.@.B.W.2X6XA.z.@X@XW.6X8X2X",
"8X8X8X8X8XA.J.8X5X2XA.@.<.2X8X8X8X8X8X8X8X8X@X0.5X5X8X8X8X{.$X5X5X8X@X@.@.J.5X8X5XA.P.$XP.W.^.2XC.",
"8X8X8X8X8XA.J.8X8X5X2X@.A.2X8X[.2X8X8X8X8X5X=X-.W.5X8X8X8X8X8X6X5X5X2XA.-.5X5X8X5XA.W.{.J.W.P.@Xk ",
"8X8X].2X8X].].8X8X8X2X@.6X8X8Xf.].5X8X8X8X8X*X@.<.2X8X8X8X8X8X8X8X8X8X2X1.5X8X8X5X].].8X$XW.8X@X$ ",
"5X8XA.$X8X8X2X8X8X8X$X0.6X8X8Xf.].5X8X8X8X8X*X@.@.5X8X8X8X8X8X8X8X6X8X2X-.5X8X8X6X5X8X8X8X5X5X}.$ ",
"5X8X8X8X8X8X8X8X8X8X2X@.6X8X8XZ.}.8X8X2X2X8X2X@.w.5X8X8X8X8X8X2X=X5X6X5Xw.5X8X8X8X8X8X8X8X8X8X@X$ ",
"5X8X8X8X8X8X8X8X8X8X-X0.6X8X8X8X8X8X8X^.B.2X].0.8X5X8X8X8X8X6XW.A.8X8X8X=X5X8X8X8X8X8X8X8X8X8X@Xo ",
"5X5X8X8X8X8X8X8X8X8X-X2.7X8X8X8X8X8X8X8X5X@X@.0.8X8X8X8X8X8X8X^.v.8X8X2X-.2X8X8X8X8X8X8X8X8X7X}.$ ",
"5Xw.$X8X8X8X8X8X8X8X-X2.6X8X8X8X8X8X8X8X5X@X@.1.8X8X6X6X8X8X5XW.B.8X8X2X@.5X8X6X8X8X8X8X8X}.f.@X. ",
"5X0.$X8X8X8X8X8X8X8X-X*.6X8X8X8X8X8X8X8X8X$X@.-.8X8X8X5X8X8X8X5X5X5X5X2X-.5X5X6X8X8X8X8X8X].0.}.$ ",
"5X0.$X8X8XW.W.8X8X8X-X0.6X8X8X8X8X8X8X8X8X}.w.$X8X8XA.@X8X8X8X6X8X8X5X=X-.2X6X6X8XP./.8X8X}.f.@Xo ",
"5X0.$X8X8XA.J.8X8X8X-X*.f.2X8X8X8X5X8X8X5X$X<.z.8X8Xw.].8X8X8X8X8X8X2Xz.-.2X8X8X8Xx.P.8X8X@Xw.}.$ ",
"5X0.$X8X8XA.J.8X8X8X-X@.@.2X8X8X8X].].8X5X@X@.0.8X8Xw.@X8X8X8X8X8X8X=X@.@.5X8X8X8XA.R.8X8X].f.}.. ",
"6X0.$X8X5X$X@X5X8X8X2X@.@.2X8X8X7XJ.K.8X8X2XA.-.8X8X].2X6X6X{.{.6X8X=X@.-.5X8X8X5X@X$X8X8X].w.$X* ",
"8X0.$X8X8X8X8X8X*X].-X*.@.-X8X8X8XJ.K.8X8X5X=X0.8X8X8X8X8X5XW.A.5X5X*X@.-.2XW.2X8X8X8X8X8X].f.$Xf ",
"8X0.$X8X8X8X8X8X].f.-X<.<.2X5X8X8X].].8X8X8X@X-.5X8X8X8X8X8XW.A.5X8X=X@.-.5X0.@X5X6X8X8X8X{.w.2X@.",
"8XB.-X8X8X8X8X8X}.f.-X*.f.].2X8X8X8X8X8X8X8X2X@.8X8X8X8X8X8XJ.A.8X8X2Xv.@.5X0.{.8X8X8X8X8X=XA.=X@.",
"8X8X8X8X8X8X8X8X}.B.2X2.2XB.2X5X8X8X8X8X8X5X].0.$X6X8X8X8X8XW.A.8X5X5X2X-.{.z.*X8X8X8X8X8X8X8X-XU ",
"8X8X8X8X8X8X8X8X8X7X].2.6X8X8X5X8X8X8X8X8X$X0.@.@.2X8X8X8X5XJ.A.8X5X5X2X@.@.2X8X8X8X8X8X8X8X5X@X$ ",
"7X8X8X8X8X8X8X8X8X@X@.2.6X8X8X8X8X8X8X8X8X6X=X-.0.2X8X8X8X8XW.A.8X8X5X2X@.@.$X8X8X8X8X5X5X2X5X].. ",
"2X8X8X8X8X8X8X8X8X@X@.2.6X8X8X8X8X8X8X8X8X5X@X1.5X5X6X5X8X8X8X8X8X8X5X2X@.-.2X8X8X8X8X5X].z.$X} o ",
"8X8X8X8XJ.].8X8X8X@X@.2.6X8X8X8X8X8X8X8X8X8X*X-.8X8Xf.@X8X8X8X8X8X8X8X2X@.@.2X5X8X8X6X].A.].0.) . ",
"2X8X8X8XB.P.8X8X2X@X@.0.6X8X8X8X8X8X8X8X8X8X=X-.8X8Xw.$X8X8X8X8X8X8X8X2X@.6 @X5X8X8X5X2XW.B.P.2 ^ ",
"w.2X8XA.P.2X8X8X$X@.t 0.2X8X8X8X8X8X8X8X8X$Xw.0.8X8X$X5X8XP.].8X8X8X5X=X@.$ -.=X8X8X8X8X5X=XR.o 0 ",
"@.2X8X@XJ.].8X8X}.E $ 0.6X6X8X8X8X8X8X8X8X}.@.-.8X8X6X5X8XA.J.8X8X8X8X2X@.$ ) $X8X8X8X8X$XA.^..   ",
"@.=XJ.-X@X$X8X8X].E $ h A.2X8XW.@X8X8X8X8X}.} m 8X8X8XW.$XA.P.8X8X8X2Xv.a . ^ $X8X8X8X8X].v.R..   ",
"@.2Xf.}.8X8X8X5X}.E . $ o.2X5Xv.].8X8X8X8X$X^ 2 8X8X8Xz.].-.z.8X8X8X=X^ . o ^ $X8X8X8X8X^.z.R..   ",
"@.2Xw.{.5X8X8X@Xz.a . o @.2X5Xz.].].$X8X8X}.) = W.5X5XW.P.H =.8X8X5X=X^ . o ) J.2X8X8X8X^.f./.$ z ",
"@.*Xw.{.@X@X8X].I > H a M W.5Xf.A.1.0.@X8X].m $ <.2X5X$X@.q E @X8X2XJ.U P E H ^ ].8X@X@XP.) =.$ D ",
"K C.) /.w.C.=Xv.m M ].@.o F P.w.^ q f B.^.,.k t U ^.P.^ 2 o k A.@Xz.M 2 5X{.k M f.@Xx.z.f.. . o . ",
"a 6 6 ,.H { x.H q @.@.U a 2 U ^ a 2 x ^ H P ].} + E k a > . a 0.:.a < - R.-.@.2 . =.P P :.a > . $ ",
"@X1.o.6 - > k M u ^ U > $X0.> o I <.x . M ].@.) 6 o {.2XK o . o H /.^ o - ) ) > o - > $ H P.) $ o ",
"o.@.6 o f.A.m a H . o * ^ o.2 * D o.m o q @.^ 2 5X- ].z.@.a $ o i @.^ - o.o o o . f.A.m o q @.^ o "
};
